<?xml version="1.0" standalone="no"?>
<!DOCTYPE svg PUBLIC "-//W3C//DTD SVG 20010904//EN"
 "http://www.w3.org/TR/2001/REC-SVG-20010904/DTD/svg10.dtd">
<svg version="1.0" xmlns="http://www.w3.org/2000/svg"
 width="260.000000pt" height="260.000000pt" viewBox="0 0 260.000000 260.000000"
 preserveAspectRatio="xMidYMid meet">
<metadata>
Created by potrace 1.14, written by Peter Selinger 2001-2017
</metadata>
<g transform="translate(0.000000,260.000000) scale(0.100000,-0.100000)"
fill="#000000" stroke="none">
<path d="M2339 2257 c-101 -121 -325 -381 -399 -462 -61 -66 -150 -164 -175
-191 -61 -65 -214 -221 -228 -233 -15 -12 -19 -12 -32 5 -45 59 -205 299 -250
374 -56 96 -78 105 -78 32 0 -44 77 -181 211 -376 l75 -109 -94 -91 c-52 -51
-134 -127 -184 -171 -49 -43 -92 -81 -95 -85 -3 -3 -27 -24 -55 -45 -27 -22
-52 -42 -55 -45 -3 -3 -36 -30 -75 -61 -293 -232 -599 -413 -822 -484 -84 -27
-98 -40 -67 -66 33 -27 285 56 514 170 280 139 638 390 915 642 22 20 56 50
75 67 l36 30 24 -36 c32 -47 300 -405 309 -412 3 -3 38 -43 78 -90 167 -199
293 -285 349 -239 31 26 -1 175 -74 339 -46 105 -95 206 -108 224 -24 35 -9
-68 26 -169 17 -51 33 -122 37 -165 l6 -75 -44 40 c-105 95 -535 621 -527 644
1 6 37 45 78 88 127 131 538 602 787 902 l22 26 -14 -60 c-42 -183 -146 -367
-239 -425 -64 -39 -36 -50 38 -15 50 24 142 120 188 196 60 102 111 253 104
308 -7 52 -16 65 -70 95 -84 48 -83 49 -187 -77z"/>
</g>
</svg>
